<svg width="24" height="24" viewBox="0 0 24 24" fill="none" xmlns="http://www.w3.org/2000/svg">
<path d="M16.6667 9.33333H15.9048V7.80952C15.9048 5.70667 14.1981 4 12.0952 4C9.99238 4 8.28571 5.70667 8.28571 7.80952V9.33333H7.52381C6.68571 9.33333 6 10.019 6 10.8571V18.4762C6 19.3143 6.68571 20 7.52381 20H16.6667C17.5048 20 18.1905 19.3143 18.1905 18.4762V10.8571C18.1905 10.019 17.5048 9.33333 16.6667 9.33333ZM12.0952 16.1905C11.2571 16.1905 10.5714 15.5048 10.5714 14.6667C10.5714 13.8286 11.2571 13.1429 12.0952 13.1429C12.9333 13.1429 13.619 13.8286 13.619 14.6667C13.619 15.5048 12.9333 16.1905 12.0952 16.1905ZM14.4571 9.33333H9.73333V7.80952C9.73333 6.50667 10.7924 5.44762 12.0952 5.44762C13.3981 5.44762 14.4571 6.50667 14.4571 7.80952V9.33333Z" fill="#8C94A0"/>
</svg>
